<?xml version="1.0" encoding="utf-8"?>
<!-- Generator: Adobe Illustrator 23.0.1, SVG Export Plug-In . SVG Version: 6.00 Build 0)  -->
<svg version="1.1" id="Layer_1" xmlns="http://www.w3.org/2000/svg" xmlns:xlink="http://www.w3.org/1999/xlink" x="0px" y="0px"
	 viewBox="0 0 500 500" style="enable-background:new 0 0 500 500;" xml:space="preserve">
<g>
	<g>
		<path d="M250,144.8c-58.1,0-105.2,47.1-105.2,105.2c0,58.1,47.1,105.2,105.2,105.2S355.2,308.1,355.2,250
			C355.2,191.9,308.1,144.8,250,144.8z"/>
	</g>
	<g>
		<path d="M453.1,225.1h-31C411.2,149,351,88.8,274.9,77.9v-31c0-13.7-11.1-24.9-24.9-24.9s-24.9,11.1-24.9,24.9v31
			C149,88.8,88.8,149,77.9,225.1h-31C33.1,225.1,22,236.3,22,250s11.1,24.9,24.9,24.9h31c11,76.1,71.2,136.3,147.2,147.2v31
			c0,13.7,11.1,24.9,24.9,24.9s24.9-11.1,24.9-24.9v-31c76.1-11,136.3-71.2,147.2-147.2h31c13.7,0,24.9-11.1,24.9-24.9
			S466.9,225.1,453.1,225.1z M250,374.4c-68.6,0-124.4-55.8-124.4-124.4S181.4,125.6,250,125.6S374.4,181.4,374.4,250
			S318.6,374.4,250,374.4z"/>
	</g>
</g>
</svg>
